<svg id="logo" xmlns="http://www.w3.org/2000/svg" viewBox="0 0 2048 2048"><defs><style>.cls-1{fill:#00a2df;}.cls-2{fill:#303030;}.cls-3{fill:#eee;}</style></defs><title>lib-cemu</title><path class="cls-1" d="M659.8018,1878.81a224.622,224.622,0,0,1-193.99-112L101.6138,1136a224.6237,224.6237,0,0,1,0-224L465.8115,281.19a224.6242,224.6242,0,0,1,193.99-112h728.3964a224.6208,224.6208,0,0,1,193.9893,112L1946.3867,912a224.6224,224.6224,0,0,1,0,224l-364.1992,630.81a224.62,224.62,0,0,1-193.9893,112Z"/><path class="cls-2" d="M1388.1984,201.19a191.9979,191.9979,0,0,1,166.2766,96L1918.6737,928a192,192,0,0,1,0,192l-364.1978,630.81a192.0006,192.0006,0,0,1-166.2771,96H659.8017a191.9993,191.9993,0,0,1-166.2767-96L129.3262,1120a192,192,0,0,1,0-192L493.5246,297.19a191.9995,191.9995,0,0,1,166.2771-96h728.3967m0-64H659.8017a256,256,0,0,0-221.7025,128L73.9008,896a256,256,0,0,0,0,256l364.1984,630.81a256,256,0,0,0,221.7025,128h728.3967a256,256,0,0,0,221.7025-128L1974.0991,1152a256,256,0,0,0,0-256L1609.9009,265.19a256,256,0,0,0-221.7025-128Z"/><path id="text" class="cls-3" d="M795.5362,1057.0039,886.5239,1214.1a64,64,0,0,0,55.3405,31.9238l537.9934.3457a32,32,0,0,1,27.6921,48l-127.1,220.14a127.9777,127.9777,0,0,1-110.85,64H777.4a127.9779,127.9779,0,0,1-110.85-64l-246.1-426.25a128.0242,128.0242,0,0,1,0-128L666.55,534A127.9989,127.9989,0,0,1,777.4,470h492.2a127.9987,127.9987,0,0,1,110.85,64l127.5937,221a32,32,0,0,1-27.7129,48H941.9752a64,64,0,0,0-55.4442,32.0322L795.4736,992.96A64,64,0,0,0,795.5362,1057.0039Z"/></svg>